<svg xmlns="http://www.w3.org/2000/svg" xmlns:xlink="http://www.w3.org/1999/xlink" width="2000" zoomAndPan="magnify" viewBox="0 0 1500 1499.999933" height="2000" preserveAspectRatio="xMidYMid meet" version="1.0"><defs><g/><clipPath id="bfd8bdb513"><path d="M 381 781 L 507.832031 781 L 507.832031 845 L 381 845 Z M 381 781 " clip-rule="nonzero"/></clipPath><clipPath id="41ed009867"><path d="M 318.082031 718 L 382 718 L 382 845 L 318.082031 845 Z M 318.082031 718 " clip-rule="nonzero"/></clipPath><clipPath id="1727b47a21"><path d="M 318.082031 655.285156 L 445 655.285156 L 445 719 L 318.082031 719 Z M 318.082031 655.285156 " clip-rule="nonzero"/></clipPath><clipPath id="5583330078"><path d="M 444 655.285156 L 507.832031 655.285156 L 507.832031 782 L 444 782 Z M 444 655.285156 " clip-rule="nonzero"/></clipPath></defs><g clip-path="url(#bfd8bdb513)"><path fill="#42e5fb" d="M 444.335938 813.078125 C 426.839844 813.078125 412.707031 798.941406 412.707031 781.449219 L 381.078125 781.449219 C 381.078125 816.257812 409.347656 844.53125 444.15625 844.53125 C 478.96875 844.53125 507.238281 816.257812 507.238281 781.449219 L 475.609375 781.449219 C 475.609375 798.941406 461.476562 813.078125 443.980469 813.078125 Z M 444.335938 813.078125 " fill-opacity="1" fill-rule="nonzero"/></g><g clip-path="url(#41ed009867)"><path fill="#42e5fb" d="M 349.800781 781.449219 C 349.800781 798.941406 363.9375 813.078125 381.429688 813.078125 L 381.429688 844.707031 C 346.441406 844.707031 318.171875 816.4375 318.171875 781.449219 C 318.171875 746.464844 346.441406 718.367188 381.253906 718.367188 L 381.253906 749.996094 C 363.761719 749.996094 349.625 764.132812 349.625 781.625 Z M 349.800781 781.449219 " fill-opacity="1" fill-rule="nonzero"/></g><g clip-path="url(#1727b47a21)"><path fill="#42e5fb" d="M 381.253906 686.914062 C 398.746094 686.914062 412.882812 701.050781 412.882812 718.542969 L 444.511719 718.542969 C 444.335938 683.558594 416.238281 655.285156 381.253906 655.285156 C 346.441406 655.285156 318.171875 683.558594 318.171875 718.367188 L 349.800781 718.367188 C 349.800781 700.875 363.9375 686.738281 381.429688 686.738281 Z M 381.253906 686.914062 " fill-opacity="1" fill-rule="nonzero"/></g><g clip-path="url(#5583330078)"><path fill="#42e5fb" d="M 475.964844 718.367188 C 475.964844 735.863281 461.828125 749.996094 444.335938 749.996094 L 444.335938 781.625 C 479.144531 781.625 507.417969 753.355469 507.417969 718.542969 C 507.417969 683.734375 479.320312 655.285156 444.335938 655.285156 L 444.335938 686.914062 C 461.828125 686.914062 475.964844 701.050781 475.964844 718.542969 Z M 475.964844 718.367188 " fill-opacity="1" fill-rule="nonzero"/></g><g fill="#ffffff" fill-opacity="1"><g transform="translate(581.314855, 802.124911)"><g><path d="M 71.40625 2.515625 C 62.332031 2.515625 53.898438 0.894531 46.109375 -2.34375 C 38.328125 -5.59375 31.578125 -9.988281 25.859375 -15.53125 C 20.148438 -21.082031 15.671875 -27.582031 12.421875 -35.03125 C 9.179688 -42.476562 7.5625 -50.398438 7.5625 -58.796875 C 7.5625 -67.203125 9.179688 -75.128906 12.421875 -82.578125 C 15.671875 -90.023438 20.148438 -96.519531 25.859375 -102.0625 C 31.578125 -107.601562 38.328125 -112 46.109375 -115.25 C 53.898438 -118.5 62.332031 -120.125 71.40625 -120.125 C 79.570312 -120.125 86.765625 -118.890625 92.984375 -116.421875 C 99.203125 -113.960938 104.382812 -111.273438 108.53125 -108.359375 C 113.34375 -104.890625 117.484375 -100.96875 120.953125 -96.59375 L 104.15625 -79.796875 C 101.695312 -82.929688 98.84375 -85.734375 95.59375 -88.203125 C 92.789062 -90.328125 89.375 -92.253906 85.34375 -93.984375 C 81.3125 -95.722656 76.664062 -96.59375 71.40625 -96.59375 C 66.132812 -96.59375 61.203125 -95.613281 56.609375 -93.65625 C 52.023438 -91.695312 48.023438 -89.007812 44.609375 -85.59375 C 41.191406 -82.175781 38.5 -78.171875 36.53125 -73.578125 C 34.570312 -68.992188 33.59375 -64.066406 33.59375 -58.796875 C 33.59375 -53.535156 34.570312 -48.609375 36.53125 -44.015625 C 38.5 -39.421875 41.191406 -35.414062 44.609375 -32 C 48.023438 -28.582031 52.023438 -25.894531 56.609375 -23.9375 C 61.203125 -21.976562 66.132812 -21 71.40625 -21 C 76.882812 -21 81.695312 -21.863281 85.84375 -23.59375 C 89.988281 -25.332031 93.519531 -27.269531 96.4375 -29.40625 C 99.789062 -31.863281 102.644531 -34.660156 105 -37.796875 L 121.796875 -21 C 118.328125 -16.632812 114.128906 -12.710938 109.203125 -9.234375 C 104.941406 -6.328125 99.675781 -3.640625 93.40625 -1.171875 C 87.132812 1.285156 79.800781 2.515625 71.40625 2.515625 Z M 71.40625 2.515625 "/></g></g></g><g fill="#ffffff" fill-opacity="1"><g transform="translate(706.474837, 802.124911)"><g><path d="M 2.515625 -117.59375 L 29.40625 -117.59375 L 60.140625 -31.078125 L 60.8125 -31.078125 L 91.5625 -117.59375 L 118.4375 -117.59375 L 74.765625 0 L 46.203125 0 Z M 2.515625 -117.59375 "/></g></g></g><g fill="#ffffff" fill-opacity="1"><g transform="translate(822.394814, 802.124911)"><g/></g></g><g fill="#ffffff" fill-opacity="1"><g transform="translate(857.674817, 802.124911)"><g><path d="M 15.125 -117.59375 L 37.796875 -117.59375 L 78.125 -67.203125 L 118.4375 -117.59375 L 141.125 -117.59375 L 141.125 0 L 115.921875 0 L 115.921875 -77.28125 L 78.125 -30.234375 L 40.3125 -77.28125 L 40.3125 0 L 15.125 0 Z M 15.125 -117.59375 "/></g></g></g><g fill="#ffffff" fill-opacity="1"><g transform="translate(1013.914766, 802.124911)"><g><path d="M 10.921875 -82.3125 L 33.59375 -82.3125 L 33.59375 0 L 10.921875 0 Z M 22.171875 -93.234375 C 18.585938 -93.234375 15.535156 -94.492188 13.015625 -97.015625 C 10.492188 -99.535156 9.234375 -102.476562 9.234375 -105.84375 C 9.234375 -109.195312 10.519531 -112.132812 13.09375 -114.65625 C 15.675781 -117.175781 18.757812 -118.4375 22.34375 -118.4375 C 25.925781 -118.4375 28.976562 -117.175781 31.5 -114.65625 C 34.019531 -112.132812 35.28125 -109.195312 35.28125 -105.84375 C 35.28125 -102.476562 33.988281 -99.535156 31.40625 -97.015625 C 28.832031 -94.492188 25.753906 -93.234375 22.171875 -93.234375 Z M 22.171875 -93.234375 "/></g></g></g><g fill="#ffffff" fill-opacity="1"><g transform="translate(1058.434751, 802.124911)"><g><path d="M 10.921875 -82.3125 L 33.59375 -82.3125 L 33.59375 -70.5625 L 34.4375 -70.5625 C 36.226562 -73.019531 38.300781 -75.257812 40.65625 -77.28125 C 42.675781 -78.957031 45.195312 -80.492188 48.21875 -81.890625 C 51.238281 -83.296875 54.765625 -84 58.796875 -84 C 62.941406 -84 66.863281 -83.1875 70.5625 -81.5625 C 74.257812 -79.9375 77.476562 -77.640625 80.21875 -74.671875 C 82.96875 -71.703125 85.125 -68.085938 86.6875 -63.828125 C 88.257812 -59.578125 89.046875 -54.820312 89.046875 -49.5625 L 89.046875 0 L 66.359375 0 L 66.359375 -46.203125 C 66.359375 -51.242188 65.015625 -55.160156 62.328125 -57.953125 C 59.640625 -60.753906 55.941406 -62.15625 51.234375 -62.15625 C 46.203125 -62.15625 42.003906 -60.445312 38.640625 -57.03125 C 35.273438 -53.613281 33.59375 -49.164062 33.59375 -43.6875 L 33.59375 0 L 10.921875 0 Z M 10.921875 -82.3125 "/></g></g></g><g fill="#ffffff" fill-opacity="1"><g transform="translate(1158.394764, 802.124911)"><g><path d="M 42.84375 1.6875 C 38.019531 1.6875 33.367188 0.648438 28.890625 -1.421875 C 24.410156 -3.492188 20.460938 -6.429688 17.046875 -10.234375 C 13.628906 -14.046875 10.910156 -18.582031 8.890625 -23.84375 C 6.878906 -29.113281 5.875 -34.882812 5.875 -41.15625 C 5.875 -47.425781 6.878906 -53.191406 8.890625 -58.453125 C 10.910156 -63.722656 13.628906 -68.234375 17.046875 -71.984375 C 20.460938 -75.734375 24.410156 -78.671875 28.890625 -80.796875 C 33.367188 -82.929688 38.019531 -84 42.84375 -84 C 47.207031 -84 51.015625 -83.296875 54.265625 -81.890625 C 57.515625 -80.492188 60.257812 -78.957031 62.5 -77.28125 C 65.070312 -75.257812 67.195312 -73.019531 68.875 -70.5625 L 69.71875 -70.5625 L 69.71875 -117.59375 L 92.40625 -117.59375 L 92.40625 0 L 69.71875 0 L 69.71875 -11.765625 L 68.875 -11.765625 C 67.195312 -9.296875 65.070312 -7.054688 62.5 -5.046875 C 60.257812 -3.359375 57.515625 -1.8125 54.265625 -0.40625 C 51.015625 0.988281 47.207031 1.6875 42.84375 1.6875 Z M 49.5625 -19.3125 C 52.46875 -19.3125 55.207031 -19.875 57.78125 -21 C 60.363281 -22.125 62.609375 -23.632812 64.515625 -25.53125 C 66.421875 -27.4375 67.90625 -29.734375 68.96875 -32.421875 C 70.03125 -35.109375 70.5625 -38.019531 70.5625 -41.15625 C 70.5625 -44.289062 70.03125 -47.203125 68.96875 -49.890625 C 67.90625 -52.578125 66.421875 -54.875 64.515625 -56.78125 C 62.609375 -58.6875 60.363281 -60.195312 57.78125 -61.3125 C 55.207031 -62.4375 52.46875 -63 49.5625 -63 C 46.644531 -63 43.898438 -62.4375 41.328125 -61.3125 C 38.753906 -60.195312 36.515625 -58.6875 34.609375 -56.78125 C 32.703125 -54.875 31.21875 -52.578125 30.15625 -49.890625 C 29.09375 -47.203125 28.5625 -44.289062 28.5625 -41.15625 C 28.5625 -38.019531 29.09375 -35.109375 30.15625 -32.421875 C 31.21875 -29.734375 32.703125 -27.4375 34.609375 -25.53125 C 36.515625 -23.632812 38.753906 -22.125 41.328125 -21 C 43.898438 -19.875 46.644531 -19.3125 49.5625 -19.3125 Z M 49.5625 -19.3125 "/></g></g></g></svg>